<svg xmlns="http://www.w3.org/2000/svg" viewBox="0 0 512 512">
  <defs>
    <linearGradient id="bg" x1="0" y1="0" x2="1" y2="1">
      <stop offset="0" stop-color="#d4552f"/>
      <stop offset="1" stop-color="#93321b"/>
    </linearGradient>
    <linearGradient id="flame" x1="0" y1="0" x2="0" y2="1">
      <stop offset="0" stop-color="#ffe8a3"/>
      <stop offset="1" stop-color="#f6b73c"/>
    </linearGradient>
  </defs>
  <rect width="512" height="512" rx="115" fill="url(#bg)"/>
  <!-- fork -->
  <g fill="#fdf6ec">
    <rect x="128" y="122" width="15" height="88" rx="7.5"/>
    <rect x="162" y="122" width="15" height="88" rx="7.5"/>
    <rect x="196" y="122" width="15" height="88" rx="7.5"/>
    <!-- head: squared top, curved bottom tapering to the neck -->
    <path d="M128 180 h83 a10 10 0 0 1 10 10 v14 c0 30 -18 48 -38 54 v112 a13.5 13.5 0 0 1 -27 0 v-112 c-20 -6 -38 -24 -38 -54 v-14 a10 10 0 0 1 10 -10 z"/>
  </g>
  <!-- flame -->
  <path fill="#fdf6ec" d="M346 122
    c 24 36 56 64 56 114
    c 0 56 -38 92 -80 92
    c -42 0 -78 -34 -78 -86
    c 0 -30 14 -50 28 -64
    c -2 26 8 38 20 40
    c -8 -40 14 -72 54 -96 z"/>
  <path fill="url(#flame)" d="M326 212
    c 16 20 34 36 34 62
    c 0 32 -22 50 -42 50
    c -20 0 -38 -18 -38 -44
    c 0 -16 8 -28 16 -34
    c 0 14 6 20 12 22
    c -4 -22 4 -40 18 -56 z"/>
</svg>
