<svg xmlns="http://www.w3.org/2000/svg" viewBox="0 0 512 512" width="512" height="512">
  <!-- Black background -->
  <rect width="512" height="512" rx="100" fill="#000000"/>

  <!-- Fork (left) -->
  <!-- Tines -->
  <rect x="170" y="80" width="14" height="80" rx="7" fill="#ffffff"/>
  <rect x="196" y="80" width="14" height="80" rx="7" fill="#ffffff"/>
  <rect x="222" y="80" width="14" height="80" rx="7" fill="#ffffff"/>
  <!-- Fork neck joining tines to handle -->
  <path d="M170 155 Q170 200 190 210 L190 420 Q190 432 196 432 Q202 432 202 420 L202 210 Q222 200 222 155" fill="#ffffff"/>

  <!-- Knife (right) -->
  <!-- Blade -->
  <path d="M296 80 L296 200 Q296 215 310 220 L310 420 Q310 432 316 432 Q322 432 322 420 L322 220 Q336 215 336 80 Z" fill="#ffffff"/>
</svg>
